<?xml version="1.0" encoding="UTF-8" standalone="no"?><!DOCTYPE svg PUBLIC "-//W3C//DTD SVG 1.1//EN" "http://www.w3.org/Graphics/SVG/1.1/DTD/svg11.dtd"><!-- Generated by graphviz version 2.40.1 (20161225.0304)
 --><!-- Title: %0 Pages: 1 --><svg xmlns="http://www.w3.org/2000/svg" xmlns:xlink="http://www.w3.org/1999/xlink" width="287pt" height="76pt" viewBox="0.00 0.00 287.00 76.00">
<g id="graph0" class="graph" transform="scale(1 1) rotate(0) translate(4 72)">
<title>%0</title>
<polygon fill="#ffffff" stroke="transparent" points="-4,4 -4,-72 283,-72 283,4 -4,4"/>
<g id="clust1" class="cluster">
<title>cluster_0</title>
<polygon fill="#d3d3d3" stroke="#d3d3d3" points="8,-8 8,-60 271,-60 271,-8 8,-8"/>
</g>
<!-- assigned -->
<g id="node1" class="node">
<title>assigned</title>
<polygon fill="none" stroke="#000000" points="80.2093,-52 15.7907,-52 15.7907,-16 80.2093,-16 80.2093,-52"/>
<text text-anchor="middle" x="48" y="-29.8" font-family="Times,serif" font-size="14.00" fill="#000000">assigned</text>
</g>
<!-- under_review -->
<g id="node2" class="node">
<title>under_review</title>
<polygon fill="none" stroke="#000000" points="191.4622,-52 98.5378,-52 98.5378,-16 191.4622,-16 191.4622,-52"/>
<text text-anchor="middle" x="145" y="-29.8" font-family="Times,serif" font-size="14.00" fill="#000000">under_review</text>
</g>
<!-- assigned&#45;&gt;under_review -->
<g id="edge1" class="edge">
<title>assigned-&gt;under_review</title>
<path fill="none" stroke="#000000" d="M80.207,-34C82.8646,-34 85.5221,-34 88.1796,-34"/>
<polygon fill="#000000" stroke="#000000" points="88.4301,-37.5001 98.4301,-34 88.43,-30.5001 88.4301,-37.5001"/>
</g>
<!-- done -->
<g id="node3" class="node">
<title>done</title>
<polygon fill="none" stroke="#000000" points="263,-52 209,-52 209,-16 263,-16 263,-52"/>
<text text-anchor="middle" x="236" y="-29.8" font-family="Times,serif" font-size="14.00" fill="#000000">done</text>
</g>
<!-- under_review&#45;&gt;done -->
<g id="edge2" class="edge">
<title>under_review-&gt;done</title>
<path fill="none" stroke="#000000" d="M191.5664,-34C194.0072,-34 196.448,-34 198.8888,-34"/>
<polygon fill="#000000" stroke="#000000" points="198.9233,-37.5001 208.9233,-34 198.9232,-30.5001 198.9233,-37.5001"/>
</g>
</g>
</svg>