<?xml version="1.0" encoding="UTF-8" standalone="no"?><!DOCTYPE svg PUBLIC "-//W3C//DTD SVG 1.1//EN" "http://www.w3.org/Graphics/SVG/1.1/DTD/svg11.dtd"><!-- Generated by graphviz version 2.40.1 (20161225.0304)
 --><!-- Title: %0 Pages: 1 --><svg xmlns="http://www.w3.org/2000/svg" xmlns:xlink="http://www.w3.org/1999/xlink" width="226pt" height="558pt" viewBox="0.00 0.00 225.70 558.31">
<g id="graph0" class="graph" transform="scale(1 1) rotate(0) translate(4 554.3078)">
<title>%0</title>
<polygon fill="#ffffff" stroke="transparent" points="-4,4 -4,-554.3078 221.7041,-554.3078 221.7041,4 -4,4"/>
<!-- filed -->
<g id="node1" class="node">
<title>filed</title>
<path fill="none" stroke="#000000" d="M132.8205,-550.3078C132.8205,-550.3078 102.8205,-550.3078 102.8205,-550.3078 96.8205,-550.3078 90.8205,-544.3078 90.8205,-538.3078 90.8205,-538.3078 90.8205,-526.3078 90.8205,-526.3078 90.8205,-520.3078 96.8205,-514.3078 102.8205,-514.3078 102.8205,-514.3078 132.8205,-514.3078 132.8205,-514.3078 138.8205,-514.3078 144.8205,-520.3078 144.8205,-526.3078 144.8205,-526.3078 144.8205,-538.3078 144.8205,-538.3078 144.8205,-544.3078 138.8205,-550.3078 132.8205,-550.3078"/>
<text text-anchor="middle" x="117.8205" y="-528.1078" font-family="Times,serif" font-size="14.00" fill="#000000">filed</text>
</g>
<!-- triage -->
<g id="node2" class="node">
<title>triage</title>
<polygon fill="none" stroke="#000000" points="141.6917,-477.2435 93.9493,-477.2435 93.9493,-429.5011 141.6917,-429.5011 141.6917,-477.2435"/>
<polyline fill="none" stroke="#000000" points="105.9493,-477.2435 93.9493,-465.2435 "/>
<polyline fill="none" stroke="#000000" points="93.9493,-441.5011 105.9493,-429.5011 "/>
<polyline fill="none" stroke="#000000" points="129.6917,-429.5011 141.6917,-441.5011 "/>
<polyline fill="none" stroke="#000000" points="141.6917,-465.2435 129.6917,-477.2435 "/>
<text text-anchor="middle" x="117.8205" y="-449.1723" font-family="Times,serif" font-size="14.00" fill="#000000">triage</text>
</g>
<!-- filed&#45;&gt;triage -->
<g id="edge1" class="edge">
<title>filed-&gt;triage</title>
<path fill="none" stroke="#000000" d="M117.8205,-514C117.8205,-506.0583 117.8205,-496.4938 117.8205,-487.333"/>
<polygon fill="#000000" stroke="#000000" points="121.3206,-487.2697 117.8205,-477.2698 114.3206,-487.2698 121.3206,-487.2697"/>
</g>
<!-- backlog -->
<g id="node3" class="node">
<title>backlog</title>
<ellipse fill="none" stroke="#000000" cx="82.8205" cy="-374.4368" rx="41.7153" ry="18"/>
<text text-anchor="middle" x="82.8205" y="-370.2368" font-family="Times,serif" font-size="14.00" fill="#000000">backlog</text>
</g>
<!-- triage&#45;&gt;backlog -->
<g id="edge2" class="edge">
<title>triage-&gt;backlog</title>
<path fill="none" stroke="#000000" d="M107.1292,-429.2601C103.2317,-420.4701 98.8003,-410.4761 94.7983,-401.4503"/>
<polygon fill="#000000" stroke="#000000" points="97.9228,-399.8621 90.6697,-392.1392 91.5236,-402.6996 97.9228,-399.8621"/>
</g>
<!-- sprint -->
<g id="node6" class="node">
<title>sprint</title>
<polygon fill="none" stroke="#000000" points="179.8205,-201.641 125.8205,-201.641 125.8205,-165.641 179.8205,-165.641 179.8205,-201.641"/>
<text text-anchor="middle" x="152.8205" y="-179.441" font-family="Times,serif" font-size="14.00" fill="#000000">sprint</text>
</g>
<!-- triage&#45;&gt;sprint -->
<g id="edge3" class="edge">
<title>triage-&gt;sprint</title>
<path fill="none" stroke="#000000" d="M125.1379,-429.2618C128.2561,-418.145 131.6648,-404.718 133.8205,-392.4368 145.0612,-328.3988 149.8658,-252.0731 151.7432,-211.7841"/>
<polygon fill="#000000" stroke="#000000" points="155.2461,-211.7924 152.1885,-201.6484 148.2529,-211.4851 155.2461,-211.7924"/>
<text text-anchor="middle" x="180.7623" y="-325.8368" font-family="Times,serif" font-size="14.00" fill="#000000">high_priority</text>
</g>
<!-- planning -->
<g id="node4" class="node">
<title>planning</title>
<polygon fill="none" stroke="#000000" points="115.3163,-303.6347 50.3247,-303.6347 50.3247,-238.6431 115.3163,-238.6431 115.3163,-303.6347"/>
<polyline fill="none" stroke="#000000" points="62.3247,-303.6347 50.3247,-291.6347 "/>
<polyline fill="none" stroke="#000000" points="50.3247,-250.6431 62.3247,-238.6431 "/>
<polyline fill="none" stroke="#000000" points="103.3163,-238.6431 115.3163,-250.6431 "/>
<polyline fill="none" stroke="#000000" points="115.3163,-291.6347 103.3163,-303.6347 "/>
<text text-anchor="middle" x="82.8205" y="-266.9389" font-family="Times,serif" font-size="14.00" fill="#000000">planning</text>
</g>
<!-- backlog&#45;&gt;planning -->
<g id="edge4" class="edge">
<title>backlog-&gt;planning</title>
<path fill="none" stroke="#000000" d="M82.8205,-355.9692C82.8205,-344.2949 82.8205,-328.6984 82.8205,-314.0641"/>
<polygon fill="#000000" stroke="#000000" points="86.3206,-313.648 82.8205,-303.648 79.3206,-313.648 86.3206,-313.648"/>
</g>
<!-- planning&#45;&gt;sprint -->
<g id="edge5" class="edge">
<title>planning-&gt;sprint</title>
<path fill="none" stroke="#000000" d="M108.8859,-238.5579C116.5046,-229.0347 124.7287,-218.7549 131.9781,-209.6933"/>
<polygon fill="#000000" stroke="#000000" points="134.8024,-211.7657 138.3165,-201.7706 129.3364,-207.3928 134.8024,-211.7657"/>
</g>
<!-- debrief -->
<g id="node5" class="node">
<title>debrief</title>
<polygon fill="none" stroke="#000000" points="55.4627,-128.4627 .1783,-128.4627 .1783,-73.1783 55.4627,-73.1783 55.4627,-128.4627"/>
<polyline fill="none" stroke="#000000" points="12.1783,-128.4627 .1783,-116.4627 "/>
<polyline fill="none" stroke="#000000" points=".1783,-85.1783 12.1783,-73.1783 "/>
<polyline fill="none" stroke="#000000" points="43.4627,-73.1783 55.4627,-85.1783 "/>
<polyline fill="none" stroke="#000000" points="55.4627,-116.4627 43.4627,-128.4627 "/>
<text text-anchor="middle" x="27.8205" y="-96.6205" font-family="Times,serif" font-size="14.00" fill="#000000">debrief</text>
</g>
<!-- debrief&#45;&gt;planning -->
<g id="edge7" class="edge">
<title>debrief-&gt;planning</title>
<path fill="none" stroke="#000000" d="M21.7111,-128.6449C18.4144,-149.3923 16.5579,-178.0913 25.0659,-201.641 29.1888,-213.0528 36.0922,-223.9128 43.7197,-233.5127"/>
<polygon fill="#000000" stroke="#000000" points="41.1316,-235.8729 50.2519,-241.2647 46.4845,-231.3623 41.1316,-235.8729"/>
<text text-anchor="middle" x="71.6978" y="-179.441" font-family="Times,serif" font-size="14.00" fill="#000000">unstarted_issues</text>
</g>
<!-- done -->
<g id="node7" class="node">
<title>done</title>
<path fill="none" stroke="#000000" d="M42.8205,-36C42.8205,-36 12.8205,-36 12.8205,-36 6.8205,-36 .8205,-30 .8205,-24 .8205,-24 .8205,-12 .8205,-12 .8205,-6 6.8205,0 12.8205,0 12.8205,0 42.8205,0 42.8205,0 48.8205,0 54.8205,-6 54.8205,-12 54.8205,-12 54.8205,-24 54.8205,-24 54.8205,-30 48.8205,-36 42.8205,-36"/>
<text text-anchor="middle" x="27.8205" y="-13.8" font-family="Times,serif" font-size="14.00" fill="#000000">done</text>
</g>
<!-- debrief&#45;&gt;done -->
<g id="edge8" class="edge">
<title>debrief-&gt;done</title>
<path fill="none" stroke="#000000" d="M27.8205,-72.7813C27.8205,-64.3343 27.8205,-55.0559 27.8205,-46.5746"/>
<polygon fill="#000000" stroke="#000000" points="31.3206,-46.3805 27.8205,-36.3806 24.3206,-46.3806 31.3206,-46.3805"/>
</g>
<!-- sprint&#45;&gt;debrief -->
<g id="edge6" class="edge">
<title>sprint-&gt;debrief</title>
<path fill="none" stroke="#000000" d="M125.6974,-165.6702C107.6836,-153.7349 83.8237,-137.9262 64.1716,-124.9055"/>
<polygon fill="#000000" stroke="#000000" points="66.0257,-121.9354 55.7562,-119.3297 62.1593,-127.7707 66.0257,-121.9354"/>
</g>
</g>
</svg>