<?xml version="1.0" encoding="UTF-8" standalone="no"?><!DOCTYPE svg PUBLIC "-//W3C//DTD SVG 1.1//EN" "http://www.w3.org/Graphics/SVG/1.1/DTD/svg11.dtd"><!-- Generated by graphviz version 2.40.1 (20161225.0304)
 --><!-- Title: %0 Pages: 1 --><svg xmlns="http://www.w3.org/2000/svg" xmlns:xlink="http://www.w3.org/1999/xlink" width="348pt" height="76pt" viewBox="0.00 0.00 348.00 76.00">
<g id="graph0" class="graph" transform="scale(1 1) rotate(0) translate(4 72)">
<title>%0</title>
<polygon fill="#ffffff" stroke="transparent" points="-4,4 -4,-72 344,-72 344,4 -4,4"/>
<g id="clust1" class="cluster">
<title>cluster_0</title>
<polygon fill="#d3d3d3" stroke="#d3d3d3" points="8,-8 8,-60 332,-60 332,-8 8,-8"/>
</g>
<!-- triage -->
<g id="node1" class="node">
<title>triage</title>
<polygon fill="none" stroke="#000000" points="70,-52 16,-52 16,-16 70,-16 70,-52"/>
<text text-anchor="middle" x="43" y="-29.8" font-family="Times,serif" font-size="14.00" fill="#000000">triage</text>
</g>
<!-- backlog -->
<g id="node2" class="node">
<title>backlog</title>
<polygon fill="none" stroke="#000000" points="148.3207,-52 87.6793,-52 87.6793,-16 148.3207,-16 148.3207,-52"/>
<text text-anchor="middle" x="118" y="-29.8" font-family="Times,serif" font-size="14.00" fill="#000000">backlog</text>
</g>
<!-- triage&#45;&gt;backlog -->
<g id="edge1" class="edge">
<title>triage-&gt;backlog</title>
<path fill="none" stroke="#000000" d="M70.2461,-34C72.7119,-34 75.1777,-34 77.6435,-34"/>
<polygon fill="#000000" stroke="#000000" points="77.7808,-37.5001 87.7807,-34 77.7807,-30.5001 77.7808,-37.5001"/>
</g>
<!-- nominated -->
<g id="node3" class="node">
<title>nominated</title>
<polygon fill="none" stroke="#000000" points="241.6011,-52 166.3989,-52 166.3989,-16 241.6011,-16 241.6011,-52"/>
<text text-anchor="middle" x="204" y="-29.8" font-family="Times,serif" font-size="14.00" fill="#000000">nominated</text>
</g>
<!-- backlog&#45;&gt;nominated -->
<g id="edge2" class="edge">
<title>backlog-&gt;nominated</title>
<path fill="none" stroke="#000000" d="M148.2344,-34C150.8393,-34 153.4442,-34 156.0492,-34"/>
<polygon fill="#000000" stroke="#000000" points="156.0968,-37.5001 166.0968,-34 156.0968,-30.5001 156.0968,-37.5001"/>
</g>
<!-- accepted -->
<g id="node4" class="node">
<title>accepted</title>
<polygon fill="none" stroke="#000000" points="324.4636,-52 259.5364,-52 259.5364,-16 324.4636,-16 324.4636,-52"/>
<text text-anchor="middle" x="292" y="-29.8" font-family="Times,serif" font-size="14.00" fill="#000000">accepted</text>
</g>
<!-- nominated&#45;&gt;accepted -->
<g id="edge3" class="edge">
<title>nominated-&gt;accepted</title>
<path fill="none" stroke="#000000" d="M241.8125,-34C244.2937,-34 246.7749,-34 249.2561,-34"/>
<polygon fill="#000000" stroke="#000000" points="249.4566,-37.5001 259.4565,-34 249.4565,-30.5001 249.4566,-37.5001"/>
</g>
</g>
</svg>