<?xml version="1.0" encoding="UTF-8" standalone="no"?><!DOCTYPE svg PUBLIC "-//W3C//DTD SVG 1.1//EN" "http://www.w3.org/Graphics/SVG/1.1/DTD/svg11.dtd"><!-- Generated by graphviz version 2.40.1 (20161225.0304)
 --><!-- Title: %0 Pages: 1 --><svg xmlns="http://www.w3.org/2000/svg" xmlns:xlink="http://www.w3.org/1999/xlink" width="533pt" height="599pt" viewBox="0.00 0.00 533.14 598.67">
<g id="graph0" class="graph" transform="scale(1 1) rotate(0) translate(4 594.671)">
<title>%0</title>
<polygon fill="#ffffff" stroke="transparent" points="-4,4 -4,-594.671 529.1412,-594.671 529.1412,4 -4,4"/>
<g id="clust1" class="cluster">
<title>cluster_0</title>
<polygon fill="#d3d3d3" stroke="#d3d3d3" points="385.1412,-530.671 385.1412,-582.671 517.1412,-582.671 517.1412,-530.671 385.1412,-530.671"/>
</g>
<!-- new_pr -->
<g id="node1" class="node">
<title>new_pr</title>
<path fill="none" stroke="#000000" d="M363.123,-574.671C363.123,-574.671 329.1594,-574.671 329.1594,-574.671 323.1594,-574.671 317.1594,-568.671 317.1594,-562.671 317.1594,-562.671 317.1594,-550.671 317.1594,-550.671 317.1594,-544.671 323.1594,-538.671 329.1594,-538.671 329.1594,-538.671 363.123,-538.671 363.123,-538.671 369.123,-538.671 375.123,-544.671 375.123,-550.671 375.123,-550.671 375.123,-562.671 375.123,-562.671 375.123,-568.671 369.123,-574.671 363.123,-574.671"/>
<text text-anchor="middle" x="346.1412" y="-552.471" font-family="Times,serif" font-size="14.00" fill="#000000">new_pr</text>
</g>
<!-- triage -->
<g id="node2" class="node">
<title>triage</title>
<polygon fill="none" stroke="#000000" points="370.0124,-501.6067 322.27,-501.6067 322.27,-453.8643 370.0124,-453.8643 370.0124,-501.6067"/>
<polyline fill="none" stroke="#000000" points="334.27,-501.6067 322.27,-489.6067 "/>
<polyline fill="none" stroke="#000000" points="322.27,-465.8643 334.27,-453.8643 "/>
<polyline fill="none" stroke="#000000" points="358.0124,-453.8643 370.0124,-465.8643 "/>
<polyline fill="none" stroke="#000000" points="370.0124,-489.6067 358.0124,-501.6067 "/>
<text text-anchor="middle" x="346.1412" y="-473.5355" font-family="Times,serif" font-size="14.00" fill="#000000">triage</text>
</g>
<!-- new_pr&#45;&gt;triage -->
<g id="edge1" class="edge">
<title>new_pr-&gt;triage</title>
<path fill="none" stroke="#000000" d="M346.1412,-538.3632C346.1412,-530.4215 346.1412,-520.857 346.1412,-511.6962"/>
<polygon fill="#000000" stroke="#000000" points="349.6413,-511.6329 346.1412,-501.633 342.6413,-511.633 349.6413,-511.6329"/>
</g>
<!-- reviewer_assigned -->
<g id="node3" class="node">
<title>reviewer_assigned</title>
<ellipse fill="none" stroke="#000000" cx="346.1412" cy="-398.8" rx="82.7839" ry="18"/>
<text text-anchor="middle" x="346.1412" y="-394.6" font-family="Times,serif" font-size="14.00" fill="#000000">reviewer_assigned</text>
</g>
<!-- triage&#45;&gt;reviewer_assigned -->
<g id="edge2" class="edge">
<title>triage-&gt;reviewer_assigned</title>
<path fill="none" stroke="#000000" d="M346.1412,-453.6233C346.1412,-445.2427 346.1412,-435.7678 346.1412,-427.0809"/>
<polygon fill="#000000" stroke="#000000" points="349.6413,-427.0023 346.1412,-417.0023 342.6413,-427.0023 349.6413,-427.0023"/>
</g>
<!-- reviewed -->
<g id="node4" class="node">
<title>reviewed</title>
<ellipse fill="none" stroke="#000000" cx="448.1412" cy="-310" rx="46.347" ry="18"/>
<text text-anchor="middle" x="448.1412" y="-305.8" font-family="Times,serif" font-size="14.00" fill="#000000">reviewed</text>
</g>
<!-- reviewer_assigned&#45;&gt;reviewed -->
<g id="edge3" class="edge">
<title>reviewer_assigned-&gt;reviewed</title>
<path fill="none" stroke="#000000" d="M353.0977,-380.6212C358.0784,-369.5133 365.6965,-355.6384 375.8326,-346 384.0022,-338.2315 394.1714,-331.792 404.2787,-326.6129"/>
<polygon fill="#000000" stroke="#000000" points="405.974,-329.6818 413.4844,-322.2089 402.953,-323.3672 405.974,-329.6818"/>
<text text-anchor="middle" x="425.2955" y="-350.2" font-family="Times,serif" font-size="14.00" fill="#000000">review_submitted</text>
</g>
<!-- approved -->
<g id="node10" class="node">
<title>approved</title>
<ellipse fill="none" stroke="#000000" cx="215.1412" cy="-310" rx="46.9342" ry="18"/>
<text text-anchor="middle" x="215.1412" y="-305.8" font-family="Times,serif" font-size="14.00" fill="#000000">approved</text>
</g>
<!-- reviewer_assigned&#45;&gt;approved -->
<g id="edge4" class="edge">
<title>reviewer_assigned-&gt;approved</title>
<path fill="none" stroke="#000000" d="M320.5721,-381.4677C299.5372,-367.2089 269.6176,-346.9275 247.0215,-331.6105"/>
<polygon fill="#000000" stroke="#000000" points="248.6895,-328.5128 238.4481,-325.7989 244.7618,-334.3071 248.6895,-328.5128"/>
</g>
<!-- reviewer_unassigned -->
<g id="node6" class="node">
<title>reviewer_unassigned</title>
<polygon fill="none" stroke="#000000" points="515.3125,-255 380.9699,-255 380.9699,-219 515.3125,-219 515.3125,-255"/>
<text text-anchor="middle" x="448.1412" y="-232.8" font-family="Times,serif" font-size="14.00" fill="#000000">reviewer_unassigned</text>
</g>
<!-- reviewed&#45;&gt;reviewer_unassigned -->
<g id="edge6" class="edge">
<title>reviewed-&gt;reviewer_unassigned</title>
<path fill="none" stroke="#00ff00" d="M448.1412,-291.9551C448.1412,-283.8828 448.1412,-274.1764 448.1412,-265.1817"/>
<polygon fill="#00ff00" stroke="#00ff00" points="451.6413,-265.0903 448.1412,-255.0904 444.6413,-265.0904 451.6413,-265.0903"/>
</g>
<!-- driveby -->
<g id="node5" class="node">
<title>driveby</title>
<path fill="none" stroke="#000000" d="M511.4075,-416.8C511.4075,-416.8 476.8749,-416.8 476.8749,-416.8 470.8749,-416.8 464.8749,-410.8 464.8749,-404.8 464.8749,-404.8 464.8749,-392.8 464.8749,-392.8 464.8749,-386.8 470.8749,-380.8 476.8749,-380.8 476.8749,-380.8 511.4075,-380.8 511.4075,-380.8 517.4075,-380.8 523.4075,-386.8 523.4075,-392.8 523.4075,-392.8 523.4075,-404.8 523.4075,-404.8 523.4075,-410.8 517.4075,-416.8 511.4075,-416.8"/>
<text text-anchor="middle" x="494.1412" y="-394.6" font-family="Times,serif" font-size="14.00" fill="#000000">driveby</text>
</g>
<!-- driveby&#45;&gt;reviewed -->
<g id="edge11" class="edge">
<title>driveby-&gt;reviewed</title>
<path fill="none" stroke="#000000" d="M491.4492,-380.4203C489.3852,-369.8938 485.8852,-356.6938 480.1412,-346 477.9908,-341.9966 475.3114,-338.0707 472.4245,-334.3696"/>
<polygon fill="#000000" stroke="#000000" points="475.0387,-332.0409 465.8978,-326.6841 469.703,-336.572 475.0387,-332.0409"/>
</g>
<!-- author_assigned -->
<g id="node7" class="node">
<title>author_assigned</title>
<ellipse fill="none" stroke="#000000" cx="448.1412" cy="-164" rx="73.5791" ry="18"/>
<text text-anchor="middle" x="448.1412" y="-159.8" font-family="Times,serif" font-size="14.00" fill="#000000">author_assigned</text>
</g>
<!-- reviewer_unassigned&#45;&gt;author_assigned -->
<g id="edge7" class="edge">
<title>reviewer_unassigned-&gt;author_assigned</title>
<path fill="none" stroke="#00ff00" d="M448.1412,-218.9551C448.1412,-210.8828 448.1412,-201.1764 448.1412,-192.1817"/>
<polygon fill="#00ff00" stroke="#00ff00" points="451.6413,-192.0903 448.1412,-182.0904 444.6413,-192.0904 451.6413,-192.0903"/>
</g>
<!-- request_rereview -->
<g id="node8" class="node">
<title>request_rereview</title>
<polygon fill="none" stroke="#000000" points="495.5291,-109 382.7533,-109 382.7533,-73 495.5291,-73 495.5291,-109"/>
<text text-anchor="middle" x="439.1412" y="-86.8" font-family="Times,serif" font-size="14.00" fill="#000000">request_rereview</text>
</g>
<!-- author_assigned&#45;&gt;request_rereview -->
<g id="edge8" class="edge">
<title>author_assigned-&gt;request_rereview</title>
<path fill="none" stroke="#000000" d="M445.9165,-145.9551C444.9213,-137.8828 443.7246,-128.1764 442.6157,-119.1817"/>
<polygon fill="#000000" stroke="#000000" points="446.0689,-118.5869 441.3715,-109.0904 439.1215,-119.4435 446.0689,-118.5869"/>
</g>
<!-- author_unassigned (cr == 0) -->
<g id="node9" class="node">
<title>author_unassigned (cr == 0)</title>
<polygon fill="none" stroke="#000000" points="445.6022,-36 270.6802,-36 270.6802,0 445.6022,0 445.6022,-36"/>
<text text-anchor="middle" x="358.1412" y="-13.8" font-family="Times,serif" font-size="14.00" fill="#000000">author_unassigned (cr == 0)</text>
</g>
<!-- request_rereview&#45;&gt;author_unassigned (cr == 0) -->
<g id="edge10" class="edge">
<title>request_rereview-&gt;author_unassigned (cr == 0)</title>
<path fill="none" stroke="#00ff00" d="M419.1187,-72.9551C409.091,-63.9177 396.7903,-52.8319 385.8698,-42.9899"/>
<polygon fill="#00ff00" stroke="#00ff00" points="387.9856,-40.1852 378.2141,-36.0904 383.2993,-45.385 387.9856,-40.1852"/>
</g>
<!-- author_unassigned (cr == 0)&#45;&gt;reviewer_assigned -->
<g id="edge9" class="edge">
<title>author_unassigned (cr == 0)-&gt;reviewer_assigned</title>
<path fill="none" stroke="#00ff00" d="M353.4673,-36.1644C350.0979,-50.8522 346.1412,-72.1198 346.1412,-91 346.1412,-310 346.1412,-310 346.1412,-310 346.1412,-330.2994 346.1412,-353.209 346.1412,-370.6736"/>
<polygon fill="#00ff00" stroke="#00ff00" points="342.6413,-370.7721 346.1412,-380.7721 349.6413,-370.7721 342.6413,-370.7721"/>
</g>
<!-- merged (approvals=reviews, reviews&gt;1, tests_passed) -->
<g id="node11" class="node">
<title>merged (approvals=reviews, reviews&gt;1, tests_passed)</title>
<path fill="none" stroke="#000000" d="M306.4237,-255C306.4237,-255 11.8587,-255 11.8587,-255 5.8587,-255 -.1413,-249 -.1413,-243 -.1413,-243 -.1413,-231 -.1413,-231 -.1413,-225 5.8587,-219 11.8587,-219 11.8587,-219 306.4237,-219 306.4237,-219 312.4237,-219 318.4237,-225 318.4237,-231 318.4237,-231 318.4237,-243 318.4237,-243 318.4237,-249 312.4237,-255 306.4237,-255"/>
<text text-anchor="middle" x="159.1412" y="-232.8" font-family="Times,serif" font-size="14.00" fill="#000000">merged (approvals=reviews, reviews&gt;1, tests_passed)</text>
</g>
<!-- approved&#45;&gt;merged (approvals=reviews, reviews&gt;1, tests_passed) -->
<g id="edge5" class="edge">
<title>approved-&gt;merged (approvals=reviews, reviews&gt;1, tests_passed)</title>
<path fill="none" stroke="#00ff00" d="M201.87,-292.7C195.1657,-283.9606 186.8866,-273.1681 179.4066,-263.4174"/>
<polygon fill="#00ff00" stroke="#00ff00" points="181.9623,-260.9985 173.0986,-255.1945 176.4082,-265.2592 181.9623,-260.9985"/>
</g>
<!-- automatable -->
<g id="node12" class="node">
<title>automatable</title>
<ellipse fill="none" stroke="#00ff00" cx="451.1412" cy="-556.671" rx="58.4648" ry="18"/>
<text text-anchor="middle" x="451.1412" y="-552.471" font-family="Times,serif" font-size="14.00" fill="#000000">automatable</text>
</g>
</g>
</svg>