<?xml version="1.0" encoding="UTF-8" standalone="no"?><!DOCTYPE svg PUBLIC "-//W3C//DTD SVG 1.1//EN" "http://www.w3.org/Graphics/SVG/1.1/DTD/svg11.dtd"><!-- Generated by graphviz version 2.40.1 (20161225.0304)
 --><!-- Title: %0 Pages: 1 --><svg xmlns="http://www.w3.org/2000/svg" xmlns:xlink="http://www.w3.org/1999/xlink" width="471pt" height="324pt" viewBox="0.00 0.00 470.57 323.60">
<g id="graph0" class="graph" transform="scale(1 1) rotate(0) translate(4 319.5958)">
<title>%0</title>
<polygon fill="#ffffff" stroke="transparent" points="-4,4 -4,-319.5958 466.5698,-319.5958 466.5698,4 -4,4"/>
<!-- sprint_issue -->
<g id="node1" class="node">
<title>sprint_issue</title>
<path fill="none" stroke="#000000" d="M174.681,-315.5958C174.681,-315.5958 115.9193,-315.5958 115.9193,-315.5958 109.9193,-315.5958 103.9193,-309.5958 103.9193,-303.5958 103.9193,-303.5958 103.9193,-291.5958 103.9193,-291.5958 103.9193,-285.5958 109.9193,-279.5958 115.9193,-279.5958 115.9193,-279.5958 174.681,-279.5958 174.681,-279.5958 180.681,-279.5958 186.681,-285.5958 186.681,-291.5958 186.681,-291.5958 186.681,-303.5958 186.681,-303.5958 186.681,-309.5958 180.681,-315.5958 174.681,-315.5958"/>
<text text-anchor="middle" x="145.3001" y="-293.3958" font-family="Times,serif" font-size="14.00" fill="#000000">sprint_issue</text>
</g>
<!-- associated pull request? -->
<g id="node2" class="node">
<title>associated pull request?</title>
<polygon fill="none" stroke="#000000" points="145.3001,-242.5958 .1996,-224.5958 145.3001,-206.5958 290.4007,-224.5958 145.3001,-242.5958"/>
<text text-anchor="middle" x="145.3001" y="-220.3958" font-family="Times,serif" font-size="14.00" fill="#000000">associated pull request?</text>
</g>
<!-- sprint_issue&#45;&gt;associated pull request? -->
<g id="edge1" class="edge">
<title>sprint_issue-&gt;associated pull request?</title>
<path fill="none" stroke="#000000" d="M145.3001,-279.5509C145.3001,-271.4786 145.3001,-261.7722 145.3001,-252.7775"/>
<polygon fill="#000000" stroke="#000000" points="148.8002,-252.6861 145.3001,-242.6862 141.8002,-252.6862 148.8002,-252.6861"/>
</g>
<!-- planning -->
<g id="node3" class="node">
<title>planning</title>
<polygon fill="none" stroke="#000000" points="159.7959,-153.7937 94.8043,-153.7937 94.8043,-88.8021 159.7959,-88.8021 159.7959,-153.7937"/>
<polyline fill="none" stroke="#000000" points="106.8043,-153.7937 94.8043,-141.7937 "/>
<polyline fill="none" stroke="#000000" points="94.8043,-100.8021 106.8043,-88.8021 "/>
<polyline fill="none" stroke="#000000" points="147.7959,-88.8021 159.7959,-100.8021 "/>
<polyline fill="none" stroke="#000000" points="159.7959,-141.7937 147.7959,-153.7937 "/>
<text text-anchor="middle" x="127.3001" y="-117.0979" font-family="Times,serif" font-size="14.00" fill="#000000">planning</text>
</g>
<!-- associated pull request?&#45;&gt;planning -->
<g id="edge2" class="edge">
<title>associated pull request?-&gt;planning</title>
<path fill="none" stroke="#000000" d="M142.1648,-206.6027C140.1188,-194.8613 137.3566,-179.0098 134.7685,-164.1573"/>
<polygon fill="#000000" stroke="#000000" points="138.1803,-163.348 133.0155,-154.0973 131.2843,-164.5497 138.1803,-163.348"/>
<text text-anchor="middle" x="146.3001" y="-175.9958" font-family="Times,serif" font-size="14.00" fill="#000000">no</text>
</g>
<!-- associated PR merged? -->
<g id="node4" class="node">
<title>associated PR merged?</title>
<polygon fill="none" stroke="#000000" points="320.3001,-139.2979 178.2605,-121.2979 320.3001,-103.2979 462.3398,-121.2979 320.3001,-139.2979"/>
<text text-anchor="middle" x="320.3001" y="-117.0979" font-family="Times,serif" font-size="14.00" fill="#000000">associated PR merged?</text>
</g>
<!-- associated pull request?&#45;&gt;associated PR merged? -->
<g id="edge3" class="edge">
<title>associated pull request?-&gt;associated PR merged?</title>
<path fill="none" stroke="#000000" d="M170.7466,-209.5754C201.2908,-191.546 252.6194,-161.2481 286.4762,-141.2633"/>
<polygon fill="#000000" stroke="#000000" points="288.2743,-144.2662 295.1068,-136.1688 284.716,-138.238 288.2743,-144.2662"/>
<text text-anchor="middle" x="242.6297" y="-175.9958" font-family="Times,serif" font-size="14.00" fill="#000000">yes</text>
</g>
<!-- keep -->
<g id="node5" class="node">
<title>keep</title>
<path fill="none" stroke="#000000" d="M299.3001,-36C299.3001,-36 269.3001,-36 269.3001,-36 263.3001,-36 257.3001,-30 257.3001,-24 257.3001,-24 257.3001,-12 257.3001,-12 257.3001,-6 263.3001,0 269.3001,0 269.3001,0 299.3001,0 299.3001,0 305.3001,0 311.3001,-6 311.3001,-12 311.3001,-12 311.3001,-24 311.3001,-24 311.3001,-30 305.3001,-36 299.3001,-36"/>
<text text-anchor="middle" x="284.3001" y="-13.8" font-family="Times,serif" font-size="14.00" fill="#000000">keep</text>
</g>
<!-- associated PR merged?&#45;&gt;keep -->
<g id="edge4" class="edge">
<title>associated PR merged?-&gt;keep</title>
<path fill="none" stroke="#000000" d="M314.1932,-103.7748C308.6754,-87.9419 300.4586,-64.3647 294.0353,-45.9339"/>
<polygon fill="#000000" stroke="#000000" points="297.2759,-44.597 290.6799,-36.3059 290.6658,-46.9007 297.2759,-44.597"/>
<text text-anchor="middle" x="309.3001" y="-58.2" font-family="Times,serif" font-size="14.00" fill="#000000">no</text>
</g>
<!-- done -->
<g id="node6" class="node">
<title>done</title>
<path fill="none" stroke="#000000" d="M371.3001,-36C371.3001,-36 341.3001,-36 341.3001,-36 335.3001,-36 329.3001,-30 329.3001,-24 329.3001,-24 329.3001,-12 329.3001,-12 329.3001,-6 335.3001,0 341.3001,0 341.3001,0 371.3001,0 371.3001,0 377.3001,0 383.3001,-6 383.3001,-12 383.3001,-12 383.3001,-24 383.3001,-24 383.3001,-30 377.3001,-36 371.3001,-36"/>
<text text-anchor="middle" x="356.3001" y="-13.8" font-family="Times,serif" font-size="14.00" fill="#000000">done</text>
</g>
<!-- associated PR merged?&#45;&gt;done -->
<g id="edge5" class="edge">
<title>associated PR merged?-&gt;done</title>
<path fill="none" stroke="#000000" d="M326.4071,-103.7748C331.9249,-87.9419 340.1417,-64.3647 346.565,-45.9339"/>
<polygon fill="#000000" stroke="#000000" points="349.9345,-46.9007 349.9204,-36.3059 343.3244,-44.597 349.9345,-46.9007"/>
<text text-anchor="middle" x="352.6297" y="-58.2" font-family="Times,serif" font-size="14.00" fill="#000000">yes</text>
</g>
</g>
</svg>