<?xml version="1.0" encoding="UTF-8" standalone="no"?><!DOCTYPE svg PUBLIC "-//W3C//DTD SVG 1.1//EN" "http://www.w3.org/Graphics/SVG/1.1/DTD/svg11.dtd"><!-- Generated by graphviz version 2.40.1 (20161225.0304)
 --><!-- Title: G Pages: 1 --><svg xmlns="http://www.w3.org/2000/svg" xmlns:xlink="http://www.w3.org/1999/xlink" width="467pt" height="812pt" viewBox="0.00 0.00 466.86 811.71">
<g id="graph0" class="graph" transform="scale(1 1) rotate(0) translate(4 807.712)">
<title>G</title>
<polygon fill="#ffffff" stroke="transparent" points="-4,4 -4,-807.712 462.8622,-807.712 462.8622,4 -4,4"/>
<g id="clust1" class="cluster">
<title>cluster_0</title>
<polygon fill="#d3d3d3" stroke="#d3d3d3" points="8,-743.712 8,-795.712 294,-795.712 294,-743.712 8,-743.712"/>
</g>
<!-- developers -->
<g id="node1" class="node">
<title>developers</title>
<ellipse fill="none" stroke="#0000ff" cx="233" cy="-769.712" rx="52.7295" ry="18"/>
<text text-anchor="middle" x="233" y="-765.512" font-family="Times,serif" font-size="14.00" fill="#000000">developers</text>
</g>
<!-- product_owners -->
<g id="node2" class="node">
<title>product_owners</title>
<ellipse fill="none" stroke="#ff0000" cx="89" cy="-769.712" rx="73.4997" ry="18"/>
<text text-anchor="middle" x="89" y="-765.512" font-family="Times,serif" font-size="14.00" fill="#000000">product_owners</text>
</g>
<!-- newly_filed_issue -->
<g id="node3" class="node">
<title>newly_filed_issue</title>
<path fill="none" stroke="#000000" d="M409.8627,-787.712C409.8627,-787.712 316.1373,-787.712 316.1373,-787.712 310.1373,-787.712 304.1373,-781.712 304.1373,-775.712 304.1373,-775.712 304.1373,-763.712 304.1373,-763.712 304.1373,-757.712 310.1373,-751.712 316.1373,-751.712 316.1373,-751.712 409.8627,-751.712 409.8627,-751.712 415.8627,-751.712 421.8627,-757.712 421.8627,-763.712 421.8627,-763.712 421.8627,-775.712 421.8627,-775.712 421.8627,-781.712 415.8627,-787.712 409.8627,-787.712"/>
<text text-anchor="middle" x="363" y="-765.512" font-family="Times,serif" font-size="14.00" fill="#000000">newly_filed_issue</text>
</g>
<!-- triage -->
<g id="node5" class="node">
<title>triage</title>
<polygon fill="none" stroke="#000000" points="386.8712,-714.6477 339.1288,-714.6477 339.1288,-666.9053 386.8712,-666.9053 386.8712,-714.6477"/>
<polyline fill="none" stroke="#000000" points="351.1288,-714.6477 339.1288,-702.6477 "/>
<polyline fill="none" stroke="#000000" points="339.1288,-678.9053 351.1288,-666.9053 "/>
<polyline fill="none" stroke="#000000" points="374.8712,-666.9053 386.8712,-678.9053 "/>
<polyline fill="none" stroke="#000000" points="386.8712,-702.6477 374.8712,-714.6477 "/>
<text text-anchor="middle" x="363" y="-686.5765" font-family="Times,serif" font-size="14.00" fill="#000000">triage</text>
</g>
<!-- newly_filed_issue&#45;&gt;triage -->
<g id="edge1" class="edge">
<title>newly_filed_issue-&gt;triage</title>
<path fill="none" stroke="#000000" d="M363,-751.4042C363,-743.4625 363,-733.898 363,-724.7372"/>
<polygon fill="#000000" stroke="#000000" points="366.5001,-724.6739 363,-714.674 359.5001,-724.674 366.5001,-724.6739"/>
</g>
<!-- unstarted_sprint_issue -->
<g id="node4" class="node">
<title>unstarted_sprint_issue</title>
<path fill="none" stroke="#000000" d="M267.6965,-629.841C267.6965,-629.841 150.3035,-629.841 150.3035,-629.841 144.3035,-629.841 138.3035,-623.841 138.3035,-617.841 138.3035,-617.841 138.3035,-605.841 138.3035,-605.841 138.3035,-599.841 144.3035,-593.841 150.3035,-593.841 150.3035,-593.841 267.6965,-593.841 267.6965,-593.841 273.6965,-593.841 279.6965,-599.841 279.6965,-605.841 279.6965,-605.841 279.6965,-617.841 279.6965,-617.841 279.6965,-623.841 273.6965,-629.841 267.6965,-629.841"/>
<text text-anchor="middle" x="209" y="-607.641" font-family="Times,serif" font-size="14.00" fill="#000000">unstarted_sprint_issue</text>
</g>
<!-- debrief -->
<g id="node6" class="node">
<title>debrief</title>
<polygon fill="none" stroke="#000000" points="236.6422,-556.6627 181.3578,-556.6627 181.3578,-501.3783 236.6422,-501.3783 236.6422,-556.6627"/>
<polyline fill="none" stroke="#000000" points="193.3578,-556.6627 181.3578,-544.6627 "/>
<polyline fill="none" stroke="#000000" points="181.3578,-513.3783 193.3578,-501.3783 "/>
<polyline fill="none" stroke="#000000" points="224.6422,-501.3783 236.6422,-513.3783 "/>
<polyline fill="none" stroke="#000000" points="236.6422,-544.6627 224.6422,-556.6627 "/>
<text text-anchor="middle" x="209" y="-524.8205" font-family="Times,serif" font-size="14.00" fill="#000000">debrief</text>
</g>
<!-- unstarted_sprint_issue&#45;&gt;debrief -->
<g id="edge3" class="edge">
<title>unstarted_sprint_issue-&gt;debrief</title>
<path fill="none" stroke="#000000" d="M209,-593.4604C209,-585.6353 209,-576.2014 209,-566.9955"/>
<polygon fill="#000000" stroke="#000000" points="212.5001,-566.7965 209,-556.7965 205.5001,-566.7965 212.5001,-566.7965"/>
</g>
<!-- backlog -->
<g id="node7" class="node">
<title>backlog</title>
<ellipse fill="none" stroke="#000000" cx="363" cy="-611.841" rx="41.7153" ry="18"/>
<text text-anchor="middle" x="363" y="-607.641" font-family="Times,serif" font-size="14.00" fill="#000000">backlog</text>
</g>
<!-- triage&#45;&gt;backlog -->
<g id="edge2" class="edge">
<title>triage-&gt;backlog</title>
<path fill="none" stroke="#000000" d="M363,-666.6643C363,-658.2837 363,-648.8088 363,-640.1219"/>
<polygon fill="#000000" stroke="#000000" points="366.5001,-640.0433 363,-630.0433 359.5001,-640.0433 366.5001,-640.0433"/>
</g>
<!-- proposed -->
<g id="node8" class="node">
<title>proposed</title>
<ellipse fill="none" stroke="#000000" cx="289" cy="-430.4" rx="46.372" ry="18"/>
<text text-anchor="middle" x="289" y="-426.2" font-family="Times,serif" font-size="14.00" fill="#000000">proposed</text>
</g>
<!-- debrief&#45;&gt;proposed -->
<g id="edge4" class="edge">
<title>debrief-&gt;proposed</title>
<path fill="none" stroke="#000000" d="M231.4974,-501.2867C243.1644,-486.9041 257.3062,-469.4708 268.6457,-455.4919"/>
<polygon fill="#000000" stroke="#000000" points="271.3768,-457.6809 274.9585,-447.7098 265.9405,-453.271 271.3768,-457.6809"/>
</g>
<!-- nomination -->
<g id="node9" class="node">
<title>nomination</title>
<polygon fill="none" stroke="#0000ff" points="334.7773,-547.0205 255.2227,-547.0205 255.2227,-511.0205 334.7773,-511.0205 334.7773,-547.0205"/>
<text text-anchor="middle" x="295" y="-524.8205" font-family="Times,serif" font-size="14.00" fill="#000000">nomination</text>
</g>
<!-- backlog&#45;&gt;nomination -->
<g id="edge5" class="edge">
<title>backlog-&gt;nomination</title>
<path fill="none" stroke="#000000" d="M348.9104,-594.6805C339.5922,-583.3315 327.1935,-568.2305 316.636,-555.372"/>
<polygon fill="#000000" stroke="#000000" points="319.0657,-552.8157 310.015,-547.308 313.6556,-557.2577 319.0657,-552.8157"/>
</g>
<!-- prioritized? -->
<g id="node10" class="node">
<title>prioritized?</title>
<polygon fill="none" stroke="#ff0000" points="294,-359.6 215.3912,-341.6 294,-323.6 372.6088,-341.6 294,-359.6"/>
<text text-anchor="middle" x="294" y="-337.4" font-family="Times,serif" font-size="14.00" fill="#000000">prioritized?</text>
</g>
<!-- proposed&#45;&gt;prioritized? -->
<g id="edge7" class="edge">
<title>proposed-&gt;prioritized?</title>
<path fill="none" stroke="#000000" d="M290.036,-412.0006C290.7244,-399.775 291.6414,-383.4887 292.42,-369.6599"/>
<polygon fill="#000000" stroke="#000000" points="295.9146,-369.853 292.9824,-359.672 288.9257,-369.4594 295.9146,-369.853"/>
</g>
<!-- nomination&#45;&gt;proposed -->
<g id="edge6" class="edge">
<title>nomination-&gt;proposed</title>
<path fill="none" stroke="#000000" d="M293.8995,-510.932C293.017,-496.4263 291.7619,-475.7971 290.743,-459.0495"/>
<polygon fill="#000000" stroke="#000000" points="294.2147,-458.4768 290.1138,-448.7078 287.2277,-458.9019 294.2147,-458.4768"/>
</g>
<!-- prioritized?&#45;&gt;backlog -->
<g id="edge8" class="edge">
<title>prioritized?-&gt;backlog</title>
<path fill="none" stroke="#000000" d="M308.1155,-356.5416C319.9146,-370.0145 336.0511,-390.953 344,-412.4 365.4901,-470.3828 366.2951,-544.0196 364.7811,-583.6032"/>
<polygon fill="#000000" stroke="#000000" points="361.2742,-583.6722 364.3078,-593.8234 368.2667,-583.9961 361.2742,-583.6722"/>
<text text-anchor="middle" x="367" y="-470.6" font-family="Times,serif" font-size="14.00" fill="#000000">no</text>
</g>
<!-- accepted -->
<g id="node11" class="node">
<title>accepted</title>
<ellipse fill="none" stroke="#000000" cx="320" cy="-252.8" rx="44.6222" ry="18"/>
<text text-anchor="middle" x="320" y="-248.6" font-family="Times,serif" font-size="14.00" fill="#000000">accepted</text>
</g>
<!-- prioritized?&#45;&gt;accepted -->
<g id="edge9" class="edge">
<title>prioritized?-&gt;accepted</title>
<path fill="none" stroke="#000000" d="M299.0131,-324.4785C302.6466,-312.0685 307.6393,-295.0166 311.8434,-280.6579"/>
<polygon fill="#000000" stroke="#000000" points="315.2836,-281.364 314.7346,-270.7834 308.5656,-279.397 315.2836,-281.364"/>
<text text-anchor="middle" x="318.3296" y="-293" font-family="Times,serif" font-size="14.00" fill="#000000">yes</text>
</g>
<!-- has volunteer? -->
<g id="node14" class="node">
<title>has volunteer?</title>
<polygon fill="none" stroke="#0000ff" points="364,-197.8 269.2754,-179.8 364,-161.8 458.7246,-179.8 364,-197.8"/>
<text text-anchor="middle" x="364" y="-175.6" font-family="Times,serif" font-size="14.00" fill="#000000">has volunteer?</text>
</g>
<!-- accepted&#45;&gt;has volunteer? -->
<g id="edge10" class="edge">
<title>accepted-&gt;has volunteer?</title>
<path fill="none" stroke="#000000" d="M330.6512,-235.1287C336.1035,-226.0829 342.8364,-214.9123 348.8217,-204.9821"/>
<polygon fill="#000000" stroke="#000000" points="351.8854,-206.6792 354.0501,-196.3078 345.8902,-203.0656 351.8854,-206.6792"/>
</g>
<!-- assigned -->
<g id="node12" class="node">
<title>assigned</title>
<ellipse fill="none" stroke="#000000" cx="364" cy="-91" rx="44.0814" ry="18"/>
<text text-anchor="middle" x="364" y="-86.8" font-family="Times,serif" font-size="14.00" fill="#000000">assigned</text>
</g>
<!-- sprint -->
<g id="node13" class="node">
<title>sprint</title>
<path fill="none" stroke="#000000" d="M379,-36C379,-36 349,-36 349,-36 343,-36 337,-30 337,-24 337,-24 337,-12 337,-12 337,-6 343,0 349,0 349,0 379,0 379,0 385,0 391,-6 391,-12 391,-12 391,-24 391,-24 391,-30 385,-36 379,-36"/>
<text text-anchor="middle" x="364" y="-13.8" font-family="Times,serif" font-size="14.00" fill="#000000">sprint</text>
</g>
<!-- assigned&#45;&gt;sprint -->
<g id="edge13" class="edge">
<title>assigned-&gt;sprint</title>
<path fill="none" stroke="#00ff00" d="M364,-72.9551C364,-64.8828 364,-55.1764 364,-46.1817"/>
<polygon fill="#00ff00" stroke="#00ff00" points="367.5001,-46.0903 364,-36.0904 360.5001,-46.0904 367.5001,-46.0903"/>
</g>
<!-- has volunteer?&#45;&gt;backlog -->
<g id="edge12" class="edge">
<title>has volunteer?-&gt;backlog</title>
<path fill="none" stroke="#000000" d="M377.3578,-195.4616C387.9561,-209.5171 401,-231.203 401,-252.8 401,-529.0205 401,-529.0205 401,-529.0205 401,-549.386 391.3907,-570.2126 381.8365,-585.8865"/>
<polygon fill="#000000" stroke="#000000" points="378.7738,-584.1775 376.2906,-594.4772 384.6548,-587.9741 378.7738,-584.1775"/>
<text text-anchor="middle" x="408" y="-381.8" font-family="Times,serif" font-size="14.00" fill="#000000">no</text>
</g>
<!-- has volunteer?&#45;&gt;assigned -->
<g id="edge11" class="edge">
<title>has volunteer?-&gt;assigned</title>
<path fill="none" stroke="#000000" d="M364,-161.4006C364,-149.2949 364,-133.2076 364,-119.4674"/>
<polygon fill="#000000" stroke="#000000" points="367.5001,-119.072 364,-109.072 360.5001,-119.0721 367.5001,-119.072"/>
<text text-anchor="middle" x="373.3296" y="-131.2" font-family="Times,serif" font-size="14.00" fill="#000000">yes</text>
</g>
</g>
</svg>