<?xml version="1.0" encoding="UTF-8" standalone="no"?><!DOCTYPE svg PUBLIC "-//W3C//DTD SVG 1.1//EN" "http://www.w3.org/Graphics/SVG/1.1/DTD/svg11.dtd"><!-- Generated by graphviz version 2.40.1 (20161225.0304)
 --><!-- Title: %0 Pages: 1 --><svg xmlns="http://www.w3.org/2000/svg" xmlns:xlink="http://www.w3.org/1999/xlink" width="389pt" height="384pt" viewBox="0.00 0.00 389.50 383.80">
<g id="graph0" class="graph" transform="scale(1 1) rotate(0) translate(4 379.8)">
<title>%0</title>
<polygon fill="#ffffff" stroke="transparent" points="-4,4 -4,-379.8 385.4975,-379.8 385.4975,4 -4,4"/>
<g id="clust3" class="cluster">
<title>cluster_0</title>
<polygon fill="#d3d3d3" stroke="#d3d3d3" points="211.4975,-8 211.4975,-367.8 373.4975,-367.8 373.4975,-8 211.4975,-8"/>
</g>
<!-- new_issue -->
<g id="node1" class="node">
<title>new_issue</title>
<path fill="none" stroke="#000000" d="M75.8137,-359.8C75.8137,-359.8 25.1812,-359.8 25.1812,-359.8 19.1812,-359.8 13.1812,-353.8 13.1812,-347.8 13.1812,-347.8 13.1812,-335.8 13.1812,-335.8 13.1812,-329.8 19.1812,-323.8 25.1812,-323.8 25.1812,-323.8 75.8137,-323.8 75.8137,-323.8 81.8137,-323.8 87.8137,-329.8 87.8137,-335.8 87.8137,-335.8 87.8137,-347.8 87.8137,-347.8 87.8137,-353.8 81.8137,-359.8 75.8137,-359.8"/>
<text text-anchor="middle" x="50.4975" y="-337.6" font-family="Times,serif" font-size="14.00" fill="#000000">new_issue</text>
</g>
<!-- label_issue -->
<g id="node6" class="node">
<title>label_issue</title>
<polygon fill="none" stroke="#0000ff" points="89.7025,-286.8 11.2924,-286.8 11.2924,-250.8 89.7025,-250.8 89.7025,-286.8"/>
<text text-anchor="middle" x="50.4975" y="-264.6" font-family="Times,serif" font-size="14.00" fill="#000000">label_issue</text>
</g>
<!-- new_issue&#45;&gt;label_issue -->
<g id="edge1" class="edge">
<title>new_issue-&gt;label_issue</title>
<path fill="none" stroke="#000000" d="M50.4975,-323.7551C50.4975,-315.6828 50.4975,-305.9764 50.4975,-296.9817"/>
<polygon fill="#000000" stroke="#000000" points="53.9976,-296.8903 50.4975,-286.8904 46.9976,-296.8904 53.9976,-296.8903"/>
</g>
<!-- urgent -->
<g id="node2" class="node">
<title>urgent</title>
<polygon fill="none" stroke="#ff0000" points="50.4975,-213.8 .0025,-195.8 50.4975,-177.8 100.9924,-195.8 50.4975,-213.8"/>
<text text-anchor="middle" x="50.4975" y="-191.6" font-family="Times,serif" font-size="14.00" fill="#000000">urgent</text>
</g>
<!-- backlog -->
<g id="node4" class="node">
<title>backlog</title>
<path fill="none" stroke="#000000" d="M68.8181,-125C68.8181,-125 32.1768,-125 32.1768,-125 26.1768,-125 20.1768,-119 20.1768,-113 20.1768,-113 20.1768,-101 20.1768,-101 20.1768,-95 26.1768,-89 32.1768,-89 32.1768,-89 68.8181,-89 68.8181,-89 74.8181,-89 80.8181,-95 80.8181,-101 80.8181,-101 80.8181,-113 80.8181,-113 80.8181,-119 74.8181,-125 68.8181,-125"/>
<text text-anchor="middle" x="50.4975" y="-102.8" font-family="Times,serif" font-size="14.00" fill="#000000">backlog</text>
</g>
<!-- urgent&#45;&gt;backlog -->
<g id="edge3" class="edge">
<title>urgent-&gt;backlog</title>
<path fill="none" stroke="#000000" d="M50.4975,-177.4006C50.4975,-165.2949 50.4975,-149.2076 50.4975,-135.4674"/>
<polygon fill="#000000" stroke="#000000" points="53.9976,-135.072 50.4975,-125.072 46.9976,-135.0721 53.9976,-135.072"/>
<text text-anchor="middle" x="57.4975" y="-147.2" font-family="Times,serif" font-size="14.00" fill="#000000">no</text>
</g>
<!-- assigned -->
<g id="node5" class="node">
<title>assigned</title>
<polygon fill="none" stroke="#0000ff" points="201.7068,-213.8 137.2881,-213.8 137.2881,-177.8 201.7068,-177.8 201.7068,-213.8"/>
<text text-anchor="middle" x="169.4975" y="-191.6" font-family="Times,serif" font-size="14.00" fill="#000000">assigned</text>
</g>
<!-- urgent&#45;&gt;assigned -->
<g id="edge4" class="edge">
<title>urgent-&gt;assigned</title>
<path fill="none" stroke="#000000" d="M101.3094,-195.8C109.8375,-195.8 118.609,-195.8 126.9027,-195.8"/>
<polygon fill="#000000" stroke="#000000" points="127.0981,-199.3001 137.0981,-195.8 127.0981,-192.3001 127.0981,-199.3001"/>
<text text-anchor="middle" x="119.194" y="-203" font-family="Times,serif" font-size="14.00" fill="#000000">yes</text>
</g>
<!-- sprint -->
<g id="node3" class="node">
<title>sprint</title>
<path fill="none" stroke="#000000" d="M184.4975,-125C184.4975,-125 154.4975,-125 154.4975,-125 148.4975,-125 142.4975,-119 142.4975,-113 142.4975,-113 142.4975,-101 142.4975,-101 142.4975,-95 148.4975,-89 154.4975,-89 154.4975,-89 184.4975,-89 184.4975,-89 190.4975,-89 196.4975,-95 196.4975,-101 196.4975,-101 196.4975,-113 196.4975,-113 196.4975,-119 190.4975,-125 184.4975,-125"/>
<text text-anchor="middle" x="169.4975" y="-102.8" font-family="Times,serif" font-size="14.00" fill="#000000">sprint</text>
</g>
<!-- assigned&#45;&gt;sprint -->
<g id="edge5" class="edge">
<title>assigned-&gt;sprint</title>
<path fill="none" stroke="#00ff00" d="M169.4975,-177.4006C169.4975,-165.2949 169.4975,-149.2076 169.4975,-135.4674"/>
<polygon fill="#00ff00" stroke="#00ff00" points="172.9976,-135.072 169.4975,-125.072 165.9976,-135.0721 172.9976,-135.072"/>
</g>
<!-- label_issue&#45;&gt;urgent -->
<g id="edge2" class="edge">
<title>label_issue-&gt;urgent</title>
<path fill="none" stroke="#000000" d="M50.4975,-250.7551C50.4975,-242.6828 50.4975,-232.9764 50.4975,-223.9817"/>
<polygon fill="#000000" stroke="#000000" points="53.9976,-223.8903 50.4975,-213.8904 46.9976,-223.8904 53.9976,-223.8903"/>
</g>
<!-- new_pr -->
<g id="node7" class="node">
<title>new_pr</title>
<path fill="none" stroke="#000000" d="M186.4793,-359.8C186.4793,-359.8 152.5157,-359.8 152.5157,-359.8 146.5157,-359.8 140.5157,-353.8 140.5157,-347.8 140.5157,-347.8 140.5157,-335.8 140.5157,-335.8 140.5157,-329.8 146.5157,-323.8 152.5157,-323.8 152.5157,-323.8 186.4793,-323.8 186.4793,-323.8 192.4793,-323.8 198.4793,-329.8 198.4793,-335.8 198.4793,-335.8 198.4793,-347.8 198.4793,-347.8 198.4793,-353.8 192.4793,-359.8 186.4793,-359.8"/>
<text text-anchor="middle" x="169.4975" y="-337.6" font-family="Times,serif" font-size="14.00" fill="#000000">new_pr</text>
</g>
<!-- label_pr -->
<g id="node8" class="node">
<title>label_pr</title>
<polygon fill="none" stroke="#0000ff" points="200.3686,-286.8 138.6263,-286.8 138.6263,-250.8 200.3686,-250.8 200.3686,-286.8"/>
<text text-anchor="middle" x="169.4975" y="-264.6" font-family="Times,serif" font-size="14.00" fill="#000000">label_pr</text>
</g>
<!-- new_pr&#45;&gt;label_pr -->
<g id="edge6" class="edge">
<title>new_pr-&gt;label_pr</title>
<path fill="none" stroke="#000000" d="M169.4975,-323.7551C169.4975,-315.6828 169.4975,-305.9764 169.4975,-296.9817"/>
<polygon fill="#000000" stroke="#000000" points="172.9976,-296.8903 169.4975,-286.8904 165.9976,-296.8904 172.9976,-296.8903"/>
</g>
<!-- label_pr&#45;&gt;assigned -->
<g id="edge7" class="edge">
<title>label_pr-&gt;assigned</title>
<path fill="none" stroke="#000000" d="M169.4975,-250.7551C169.4975,-242.6828 169.4975,-232.9764 169.4975,-223.9817"/>
<polygon fill="#000000" stroke="#000000" points="172.9976,-223.8903 169.4975,-213.8904 165.9976,-223.8904 172.9976,-223.8903"/>
</g>
<!-- developers -->
<g id="node9" class="node">
<title>developers</title>
<ellipse fill="none" stroke="#0000ff" cx="292.4975" cy="-34" rx="52.7295" ry="18"/>
<text text-anchor="middle" x="292.4975" y="-29.8" font-family="Times,serif" font-size="14.00" fill="#000000">developers</text>
</g>
<!-- product_owners -->
<g id="node10" class="node">
<title>product_owners</title>
<ellipse fill="none" stroke="#ff0000" cx="292.4975" cy="-195.8" rx="73.4997" ry="18"/>
<text text-anchor="middle" x="292.4975" y="-191.6" font-family="Times,serif" font-size="14.00" fill="#000000">product_owners</text>
</g>
<!-- product_owners&#45;&gt;developers -->
<!-- automatable -->
<g id="node11" class="node">
<title>automatable</title>
<ellipse fill="none" stroke="#00ff00" cx="292.4975" cy="-341.8" rx="58.4648" ry="18"/>
<text text-anchor="middle" x="292.4975" y="-337.6" font-family="Times,serif" font-size="14.00" fill="#000000">automatable</text>
</g>
<!-- automatable&#45;&gt;product_owners -->
</g>
</svg>